<svg width="43" height="36" viewBox="0 0 43 36" fill="none" xmlns="http://www.w3.org/2000/svg">
<path d="M38.367 2.25933H31.4783C31.2014 0.976408 29.8577 0 28.2469 0C26.436 0 24.963 1.23321 24.963 2.74932V12.055L17.4526 7.78572C16.4796 7.13561 15.209 6.778 13.8669 6.778C12.51 6.778 11.2263 7.1433 10.2494 7.80714C10.2438 7.81071 10.2382 7.81428 10.233 7.81813C10.2083 7.83488 7.73573 9.52815 5.29593 11.3909C0.409095 15.1216 0 16.1754 0 16.8703V22.5186C0 23.3901 2.08484 29.5727 3.13858 32.539C3.735 34.2169 5.40714 35.9999 7.33189 35.9999C9.14739 35.9999 10.6762 34.3737 10.8881 32.2171L11.4606 26.3976H22.7686L23.341 32.2171C23.553 34.3737 25.0818 35.9999 26.8973 35.9999C28.6216 35.9999 30.2901 34.4775 30.8022 32.4475C30.9433 32.088 31.7158 30.1088 32.4796 28.0486C34.2291 23.3264 34.2291 22.7809 34.2291 22.5186V12.2324C35.3616 11.7347 36.2808 10.9652 36.875 10.0173H38.367C40.9216 10.0173 42.9999 8.27708 42.9999 6.13832C42.9999 3.99956 40.9216 2.25933 38.367 2.25933Z" fill="#231F20"/>
</svg>
