<svg width="75" height="72" viewBox="0 0 75 72" fill="none" xmlns="http://www.w3.org/2000/svg">
<g clip-path="url(#clip0)">
<path d="M61.3799 48.0254H53.864V50.4305H61.3799V48.0254Z" fill="#81B3D2"/>
<path d="M51.3587 48.0254H43.8428V50.4305H51.3587V48.0254Z" fill="#81B3D2"/>
<path d="M41.3375 48.0254H33.8216V50.4305H41.3375V48.0254Z" fill="#81B3D2"/>
<path d="M73.8901 24.9401L49.1039 1.14177C48.4001 0.459626 47.441 0.0763149 46.4408 0.0775175H46.4295C45.4359 0.0779684 44.4842 0.46143 43.7877 1.14177L17.4945 26.3796H3.75795C1.68247 26.3796 0 27.9948 0 29.9872V63.6585C0 65.651 1.68247 67.2661 3.75795 67.2661H22.3172L26.0551 70.8581C26.759 71.5403 27.718 71.9236 28.7183 71.9224H28.7283C29.7223 71.9221 30.6746 71.5386 31.3714 70.8581L35.1168 67.2661H63.8852C65.9607 67.2661 67.6432 65.651 67.6432 63.6585V36.0408L73.8839 30.0498C74.5962 29.3804 74.9983 28.4644 75 27.5076C75.0038 26.5434 74.6038 25.6184 73.8901 24.9401ZM57.9552 13.0434L44.0633 26.3796H33.4257L52.6364 7.93736L57.9552 13.0434ZM45.5614 2.83736C46.0379 2.36882 46.8199 2.3598 47.3081 2.81737C47.3151 2.82398 47.3222 2.83059 47.3289 2.83736L50.8652 6.23696L29.882 26.3796H21.037L45.5614 2.83736ZM29.5976 69.1626C29.3686 69.3922 29.052 69.5224 28.7208 69.5233C28.3851 69.5226 28.0638 69.3927 27.8289 69.1626L25.861 67.2661H31.5743L29.5976 69.1626ZM65.1379 63.6585C65.1379 64.3226 64.577 64.861 63.8852 64.861H3.75795C3.06618 64.861 2.5053 64.3226 2.5053 63.6585V46.8229H65.1379V63.6585ZM65.1379 44.4178H2.5053V37.2025H65.1379V44.4178ZM65.1379 34.7974H2.5053V29.9872C2.5053 29.3231 3.06618 28.7847 3.75795 28.7847H63.8852C64.577 28.7847 65.1379 29.3231 65.1379 29.9872V34.7974ZM72.1189 28.3434L67.6432 32.64V29.9872C67.6432 27.9948 65.9607 26.3796 63.8852 26.3796H47.6008L59.7214 14.7438L72.1139 26.6405C72.3546 26.8669 72.49 27.1769 72.4897 27.5004C72.4894 27.8178 72.3556 28.1218 72.1189 28.3434Z" fill="#81B3D2"/>
<path d="M12.0142 62.4885C12.1971 62.3367 12.3684 62.1722 12.5265 61.9966C14.183 63.8489 17.0292 64.2007 19.1205 62.812C20.4702 61.906 21.2804 60.4294 21.2951 58.8484C21.2951 56.1918 19.0517 54.0382 16.2845 54.0382C16.0358 54.0349 15.7875 54.055 15.5429 54.0983L15.5103 54.1067C15.4978 54.1067 15.4853 54.1067 15.474 54.1067C14.3264 54.2898 13.2828 54.8552 12.5265 55.7037C10.7164 53.6943 7.55209 53.474 5.45907 55.2119C3.36588 56.9496 3.13649 59.9873 4.94673 61.9966C6.75681 64.0061 9.92101 64.2263 12.0142 62.4885ZM15.9676 56.4685C16.072 56.4494 16.1782 56.441 16.2845 56.4433C17.6682 56.4433 18.7898 57.52 18.7898 58.8484C18.7885 59.3572 18.6158 59.852 18.2975 60.259C18.2524 60.3179 18.2173 60.3792 18.166 60.4405C18.1572 60.4502 18.1447 60.4562 18.1346 60.4658C17.6615 60.9674 16.9894 61.2536 16.2845 61.2535C14.9011 61.2308 13.7986 60.1358 13.8222 58.8078C13.8432 57.6285 14.7517 56.6378 15.9676 56.4685ZM8.76857 56.4433C10.1523 56.4433 11.2739 57.52 11.2739 58.8484C11.2739 60.1767 10.1523 61.2535 8.76857 61.2535C7.38486 61.2535 6.26327 60.1767 6.26327 58.8484C6.26327 57.52 7.38486 56.4433 8.76857 56.4433Z" fill="#81B3D2"/>
</g>
<defs>
<clipPath id="clip0">
<rect width="75" height="72" fill="white"/>
</clipPath>
</defs>
</svg>
