<svg width="75" height="72" viewBox="0 0 75 72" fill="none" xmlns="http://www.w3.org/2000/svg">
<g clip-path="url(#clip0)">
<path d="M71.6976 0H57.088C56.48 0 55.9872 0.473062 55.9872 1.0568C55.9872 1.64053 56.48 2.11359 57.088 2.11359H71.6976C72.3047 2.11359 72.7985 2.58764 72.7985 3.17039V24.4403C72.7985 25.0231 72.3047 25.4971 71.6976 25.4971H41.4092V24.9891C41.4092 22.9275 39.6622 21.2505 37.5149 21.2505C35.3676 21.2505 33.6206 22.9276 33.6206 24.9891V25.4971H22.4074C21.7995 25.4971 21.3066 25.9702 21.3066 26.5539C21.3066 27.1377 21.7995 27.6107 22.4074 27.6107H33.6206V46.234L31.006 43.4209C29.3921 41.6845 27.0762 40.6886 24.6521 40.6886C23.7488 40.6886 22.9339 41.1337 22.4723 41.8793C22.0107 42.6248 21.9932 43.5248 22.425 44.2866L26.809 52.018C27.8957 53.9346 29.2819 55.6695 30.929 57.174L35.601 61.4416V63.7054C34.4582 63.9333 33.5971 64.9072 33.5971 66.0708V69.5841C33.5971 70.9163 34.726 72.0001 36.1138 72.0001H53.4703C54.8581 72.0001 55.9872 70.9163 55.9872 69.5841V66.0708C55.9872 64.9323 55.1618 63.9778 54.0559 63.7234V61.3742C55.0592 60.1592 58.1701 55.7003 58.1701 47.1347V40.68C58.1701 38.6186 56.4231 36.9416 54.2758 36.9416C53.5582 36.9416 52.8852 37.1289 52.3072 37.4553C51.7334 36.0762 50.3278 35.0992 48.6888 35.0992C47.9711 35.0992 47.2983 35.2865 46.7203 35.6129C46.1465 34.2337 44.7409 33.2567 43.1018 33.2567C42.4955 33.2567 41.9212 33.3903 41.4091 33.6286V27.611H71.6975C73.5184 27.611 74.9998 26.1887 74.9998 24.4408V3.17025C75 1.42214 73.5186 0 71.6976 0V0ZM43.102 35.3697C44.0354 35.3697 44.7948 36.0987 44.7948 36.9948V38.8374C44.7948 39.4211 45.2875 39.8942 45.8956 39.8942C46.5036 39.8942 46.9964 39.4211 46.9964 38.8374C46.9964 37.9413 47.7558 37.2123 48.6892 37.2123C49.6224 37.2123 50.3818 37.9413 50.3818 38.8374V40.6799C50.3818 41.2636 50.8746 41.7367 51.4826 41.7367C52.0907 41.7367 52.5835 41.2636 52.5835 40.6799C52.5835 39.7838 53.3429 39.0549 54.2763 39.0549C55.2097 39.0549 55.969 39.7838 55.969 40.6799V47.1345C55.969 56.2136 52.191 60.2259 52.1568 60.2613C51.9628 60.4575 51.8547 60.7178 51.8547 60.9884V63.6545H49.1953C48.5872 63.6545 48.0945 64.1275 48.0945 64.7113C48.0945 65.295 48.5872 65.7681 49.1953 65.7681H53.4704C53.6443 65.7681 53.7858 65.9039 53.7858 66.0708V69.5841C53.7858 69.751 53.6443 69.8867 53.4704 69.8867H36.1138C35.9399 69.8867 35.7986 69.751 35.7986 69.5841V66.0708C35.7986 65.9039 35.9399 65.7681 36.1138 65.7681H44.7921C45.4002 65.7681 45.893 65.295 45.893 64.7113C45.893 64.1275 45.4002 63.6545 44.7921 63.6545H37.8026V60.9884C37.8026 60.699 37.679 60.4223 37.4606 60.2228L32.4466 55.6428C30.9658 54.2901 29.7196 52.7306 28.7426 51.0074L24.3586 43.2759C24.255 43.0093 24.3584 42.8421 24.652 42.8019C26.4494 42.8019 28.1664 43.5402 29.3631 44.8277L33.8579 49.6638C34.4957 50.3841 35.8526 49.9247 35.8219 48.9603V24.9891C35.8219 24.093 36.5812 23.364 37.5146 23.364C38.4479 23.364 39.2073 24.093 39.2073 24.9891V36.9948C39.2073 37.5785 39.7 38.0516 40.3081 38.0516C40.9161 38.0516 41.4089 37.5785 41.4089 36.9948C41.4092 36.0987 42.1686 35.3697 43.102 35.3697V35.3697Z" fill="#81B3D2"/>
<path d="M18.0042 25.497H3.30234C2.69531 25.497 2.20151 25.023 2.20151 24.4402V3.17025C2.20151 2.5875 2.69531 2.11345 3.30234 2.11345H52.6849C53.2929 2.11345 53.7857 1.64039 53.7857 1.05666C53.7857 0.472922 53.2929 0 52.6849 0H3.30234C1.4814 0 0 1.42214 0 3.17025V24.4402C0 26.1882 1.4814 27.6105 3.30234 27.6105H18.0042C18.6122 27.6105 19.1051 27.1374 19.1051 26.5537C19.1051 25.9699 18.6123 25.497 18.0042 25.497V25.497Z" fill="#81B3D2"/>
<path d="M44.7441 13.0115C45.3908 12.4064 45.6193 11.5183 45.3401 10.6936C45.0611 9.869 44.3323 9.27922 43.4385 9.15449L40.8754 8.79702C40.8252 8.78999 40.7817 8.75975 40.7591 8.71602L39.6127 6.48627C39.2131 5.70875 38.4038 5.22571 37.5004 5.22571C36.5972 5.22571 35.7877 5.70861 35.388 6.48627L34.2416 8.71616C34.219 8.75975 34.1757 8.79013 34.1257 8.79702L31.5621 9.15449C30.6683 9.27922 29.9397 9.869 29.6606 10.6936C29.3815 11.5183 29.6099 12.4064 30.2566 13.0115L32.1116 14.7474C32.1479 14.7815 32.1645 14.8303 32.1558 14.8783L31.718 17.3292C31.5653 18.1836 31.9244 19.0311 32.655 19.5408C33.3857 20.0505 34.3364 20.1165 35.1359 19.713L37.4287 18.5558C37.4735 18.533 37.5271 18.533 37.5719 18.5558L39.8648 19.713C40.2126 19.8884 40.5888 19.9752 40.9632 19.9752C41.4495 19.9752 41.9328 19.8288 42.3457 19.5408C43.0762 19.0311 43.4353 18.1836 43.2825 17.3292L42.8448 14.8783C42.8361 14.8304 42.8527 14.7815 42.889 14.7474L44.7441 13.0115ZM41.3524 13.2342C40.7971 13.7538 40.5438 14.502 40.675 15.2357L41.1129 17.6868C41.1171 17.7115 41.129 17.7773 41.0515 17.8312C40.9743 17.8852 40.9122 17.854 40.8892 17.8424L38.5966 16.6854C38.2532 16.512 37.8769 16.4255 37.5003 16.4255C37.1238 16.4255 36.7474 16.5121 36.4041 16.6852L34.1115 17.8424C34.0884 17.854 34.0267 17.8855 33.9491 17.8312C33.8716 17.7772 33.8833 17.7114 33.8878 17.6866L34.3257 15.2357C34.4568 14.5019 34.2035 13.7536 33.6482 13.2342L31.7934 11.4984C31.7747 11.4808 31.7249 11.4342 31.7543 11.3468C31.7839 11.2594 31.8529 11.2497 31.8787 11.2461L34.4423 10.8887C35.2097 10.7815 35.8726 10.3189 36.2156 9.6516L37.362 7.42185C37.3736 7.39921 37.4043 7.33944 37.5001 7.33944C37.5959 7.33944 37.6266 7.39935 37.6383 7.42185L38.7847 9.65146C39.1276 10.319 39.7907 10.7815 40.5584 10.8888L43.1216 11.2463C43.1476 11.2499 43.2166 11.2595 43.246 11.347C43.2756 11.4343 43.2258 11.481 43.207 11.4986L41.3524 13.2342Z" fill="#81B3D2"/>
<path d="M21.3342 17.3293L20.8963 14.8785C20.8877 14.8305 20.9042 14.7816 20.9407 14.7475L22.7955 13.0117C23.4422 12.4066 23.6706 11.5184 23.3915 10.6938C23.1125 9.86913 22.3839 9.27935 21.4899 9.15461L18.9267 8.79714C18.8764 8.79011 18.8331 8.75988 18.8105 8.71614L17.6641 6.48639C17.2644 5.70888 16.4551 5.22583 15.5518 5.22583C14.6486 5.22583 13.8391 5.70874 13.4394 6.48639L12.2931 8.71614C12.2706 8.75988 12.2271 8.79011 12.1771 8.79714L9.61366 9.15461C8.71981 9.27935 7.9912 9.86913 7.71214 10.6938C7.43309 11.5184 7.66146 12.4066 8.30819 13.0117L10.1631 14.7475C10.1994 14.7816 10.216 14.8304 10.2074 14.8785L9.76952 17.3293C9.61688 18.1839 9.97591 19.0314 10.7066 19.5409C11.4374 20.0508 12.3879 20.1165 13.1874 19.7132L15.4802 18.556C15.525 18.5333 15.5786 18.5333 15.6236 18.556L17.9165 19.7132C18.2643 19.8885 18.6405 19.9753 19.0149 19.9753C19.5012 19.9753 19.9845 19.8289 20.3974 19.5409C21.1278 19.0313 21.4868 18.1837 21.3342 17.3293V17.3293ZM19.4041 13.234C18.8486 13.7536 18.5953 14.5019 18.7264 15.2357L19.1643 17.6866C19.1687 17.7114 19.1806 17.7772 19.1031 17.8312C19.0257 17.8855 18.9639 17.854 18.9408 17.8424L16.648 16.6852C16.3048 16.512 15.9283 16.4255 15.5518 16.4255C15.1754 16.4255 14.7988 16.5121 14.4557 16.6852L12.1631 17.8424C12.1399 17.854 12.0783 17.8853 12.0008 17.8312C11.9233 17.7773 11.935 17.7114 11.9395 17.6866L12.3774 15.2357C12.5085 14.5019 12.2552 13.7536 11.6999 13.2341L9.8451 11.4983C9.82635 11.4807 9.77655 11.434 9.80599 11.3467C9.83558 11.2592 9.90457 11.2495 9.93036 11.246L12.494 10.8885C13.2613 10.7814 13.9243 10.3188 14.2675 9.65144L15.4139 7.42169C15.4254 7.39905 15.4562 7.33928 15.552 7.33928C15.6478 7.33928 15.6785 7.39919 15.6901 7.42169L16.8365 9.6513C17.1796 10.3188 17.8424 10.7814 18.6101 10.8887L21.1735 11.2461C21.1994 11.2498 21.2682 11.2593 21.2978 11.3468C21.3274 11.4341 21.2776 11.4808 21.2589 11.4984L19.4041 13.234Z" fill="#81B3D2"/>
<path d="M66.6927 13.0116C67.3395 12.4064 67.568 11.5183 67.2888 10.6936C67.0097 9.869 66.281 9.27922 65.3871 9.15449L62.8241 8.79702C62.7737 8.78999 62.7303 8.75975 62.7078 8.71602L61.5614 6.48627C61.1616 5.70875 60.3523 5.22571 59.4491 5.22571C58.5459 5.22571 57.7364 5.70861 57.3366 6.48627L56.1904 8.71588C56.1677 8.75961 56.1243 8.78999 56.0742 8.79702L53.5108 9.15449C52.6168 9.27922 51.8883 9.869 51.6092 10.6938C51.3302 11.5184 51.5587 12.4066 52.2053 13.0116L54.0602 14.7474C54.0964 14.7815 54.1131 14.8303 54.1043 14.8783L53.6668 17.3292C53.514 18.1837 53.873 19.0313 54.6037 19.5409C55.334 20.0507 56.2847 20.1166 57.0844 19.7132L59.3772 18.556C59.4218 18.5335 59.4757 18.5332 59.5204 18.556L61.8134 19.7132C62.1611 19.8885 62.5373 19.9753 62.9117 19.9753C63.398 19.9753 63.8813 19.8289 64.2942 19.5409C65.0247 19.0313 65.3838 18.1837 65.231 17.3293L64.7933 14.8785C64.7846 14.8305 64.8012 14.7816 64.8375 14.7476L66.6927 13.0116ZM63.301 13.2342C62.7457 13.7538 62.4924 14.502 62.6237 15.2357L63.0615 17.6868C63.0658 17.7115 63.0777 17.7773 63.0002 17.8312C62.923 17.8852 62.8609 17.854 62.8379 17.8424L60.5452 16.6854C60.202 16.512 59.8256 16.4255 59.4491 16.4255C59.0726 16.4255 58.696 16.5121 58.3528 16.6852L56.06 17.8424C56.0372 17.854 55.9754 17.8853 55.8979 17.8312C55.8205 17.7773 55.8322 17.7115 55.8366 17.6866L56.2742 15.2361C56.4054 14.5023 56.1523 13.7539 55.597 13.2342L53.7422 11.4981C53.7236 11.4807 53.6737 11.434 53.7032 11.3467C53.733 11.2592 53.8018 11.2495 53.8276 11.246L56.3912 10.8885C57.1584 10.7814 57.8212 10.3189 58.1647 9.65146L59.3111 7.42171C59.3227 7.39907 59.3536 7.3393 59.4492 7.3393C59.5449 7.3393 59.5757 7.39921 59.5872 7.42171L60.7336 9.65132C61.0765 10.3189 61.7397 10.7814 62.5074 10.8887L65.0706 11.2461C65.0965 11.2498 65.1655 11.2594 65.1949 11.3468C65.2247 11.4342 65.1747 11.4808 65.156 11.4984L63.301 13.2342Z" fill="#81B3D2"/>
</g>
<defs>
<clipPath id="clip0">
<rect width="75" height="72" fill="white"/>
</clipPath>
</defs>
</svg>
